<svg width="511" height="131" viewBox="0 0 511 131" fill="none" xmlns="http://www.w3.org/2000/svg">
<path d="M185.037 109.455V34.4548H199.952V43.6167H200.626C201.289 42.1489 202.248 40.6574 203.503 39.1423C204.781 37.6034 206.438 36.325 208.474 35.307C210.534 34.2654 213.091 33.7445 216.145 33.7445C220.122 33.7445 223.792 34.7862 227.153 36.8695C230.515 38.9292 233.202 42.0424 235.214 46.209C237.227 50.352 238.233 55.5485 238.233 61.7985C238.233 67.8828 237.25 73.0201 235.286 77.2104C233.344 81.3771 230.693 84.5376 227.331 86.692C223.993 88.8227 220.252 89.888 216.109 89.888C213.174 89.888 210.676 89.4027 208.616 88.432C206.58 87.4614 204.911 86.2422 203.609 84.7744C202.307 83.2829 201.313 81.7796 200.626 80.2644H200.165V109.455H185.037ZM199.845 61.7275C199.845 64.9709 200.295 67.7999 201.195 70.2147C202.094 72.6295 203.396 74.5116 205.101 75.861C206.805 77.1868 208.877 77.8497 211.315 77.8497C213.777 77.8497 215.861 77.1749 217.565 75.8255C219.27 74.4524 220.56 72.5585 221.436 70.1437C222.336 67.7052 222.786 64.8998 222.786 61.7275C222.786 58.5788 222.348 55.8089 221.472 53.4178C220.596 51.0267 219.305 49.1565 217.601 47.807C215.896 46.4576 213.801 45.7829 211.315 45.7829C208.853 45.7829 206.77 46.4339 205.065 47.736C203.384 49.0381 202.094 50.8847 201.195 53.2758C200.295 55.6669 199.845 58.4841 199.845 61.7275Z" fill="white"/>
<path d="M263.872 90.0301C260.392 90.0301 257.291 89.4264 254.568 88.219C251.846 86.9879 249.691 85.1768 248.105 82.7857C246.543 80.371 245.761 77.3643 245.761 73.7659C245.761 70.7355 246.318 68.1906 247.43 66.1309C248.543 64.0712 250.058 62.414 251.976 61.1593C253.893 59.9046 256.071 58.9576 258.51 58.3184C260.972 57.6792 263.553 57.2294 266.251 56.969C269.424 56.6375 271.981 56.3298 273.922 56.0457C275.863 55.7379 277.272 55.2881 278.148 54.6962C279.024 54.1044 279.462 53.2284 279.462 52.0684V51.8553C279.462 49.6063 278.751 47.8662 277.331 46.6352C275.934 45.4041 273.946 44.7886 271.365 44.7886C268.643 44.7886 266.476 45.3923 264.866 46.5997C263.257 47.7834 262.191 49.2748 261.67 51.0741L247.679 49.9377C248.389 46.6233 249.786 43.7587 251.869 41.344C253.953 38.9055 256.64 37.0353 259.93 35.7332C263.245 34.4074 267.08 33.7445 271.436 33.7445C274.466 33.7445 277.366 34.0997 280.136 34.8099C282.93 35.5201 285.404 36.621 287.558 38.1124C289.736 39.6039 291.453 41.5215 292.707 43.8653C293.962 46.1854 294.589 48.9671 294.589 52.2104V89.0002H280.243V81.4363H279.817C278.941 83.1408 277.769 84.6442 276.301 85.9462C274.833 87.2247 273.07 88.2308 271.01 88.9647C268.95 89.6749 266.571 90.0301 263.872 90.0301ZM268.205 79.5897C270.43 79.5897 272.395 79.1517 274.099 78.2758C275.804 77.3762 277.142 76.1688 278.112 74.6536C279.083 73.1385 279.568 71.4221 279.568 69.5045V63.7161C279.095 64.0239 278.444 64.308 277.615 64.5684C276.81 64.8051 275.899 65.0301 274.881 65.2431C273.863 65.4325 272.845 65.6101 271.827 65.7758C270.809 65.9178 269.885 66.048 269.057 66.1664C267.281 66.4268 265.731 66.8411 264.405 67.4093C263.079 67.9775 262.049 68.7469 261.315 69.7176C260.581 70.6645 260.214 71.8482 260.214 73.2687C260.214 75.3283 260.96 76.9027 262.452 77.9917C263.967 79.057 265.884 79.5897 268.205 79.5897Z" fill="white"/>
<path d="M306.326 89.0002V34.4548H320.992V43.9718H321.56C322.555 40.5864 324.224 38.0296 326.567 36.3014C328.911 34.5495 331.61 33.6735 334.664 33.6735C335.422 33.6735 336.238 33.7209 337.114 33.8156C337.99 33.9103 338.76 34.0405 339.423 34.2062V47.6295C338.712 47.4164 337.73 47.227 336.475 47.0613C335.22 46.8956 334.072 46.8127 333.031 46.8127C330.805 46.8127 328.817 47.298 327.065 48.2687C325.336 49.2157 323.963 50.5414 322.945 52.246C321.951 53.9505 321.454 55.9155 321.454 58.1409V89.0002H306.326Z" fill="white"/>
<path d="M360.951 73.3042L360.987 55.1579H363.189L380.66 34.4548H398.025L374.552 61.8695H370.966L360.951 73.3042ZM347.244 89.0002V16.2729H362.372V89.0002H347.244ZM381.335 89.0002L365.284 65.2431L375.369 54.5542L399.055 89.0002H381.335Z" fill="white"/>
<path d="M428.059 90.0656C422.448 90.0656 417.619 88.9292 413.57 86.6565C409.546 84.3601 406.444 81.1167 404.266 76.9264C402.088 72.7123 400.999 67.7289 400.999 61.9761C400.999 56.3653 402.088 51.441 404.266 47.2034C406.444 42.9657 409.51 39.6631 413.464 37.2957C417.441 34.9283 422.105 33.7445 427.455 33.7445C431.054 33.7445 434.404 34.3246 437.505 35.4846C440.63 36.621 443.352 38.3373 445.673 40.6337C448.016 42.9301 449.839 45.8184 451.141 49.2985C452.443 52.755 453.094 56.8033 453.094 61.4434V65.5982H407.036V56.2232H438.854C438.854 54.0452 438.381 52.1158 437.434 50.4349C436.487 48.754 435.173 47.4401 433.492 46.4931C431.835 45.5225 429.906 45.0372 427.704 45.0372C425.407 45.0372 423.371 45.5698 421.596 46.6352C419.844 47.6768 418.471 49.0855 417.477 50.861C416.482 52.6129 415.973 54.566 415.95 56.7204V65.6337C415.95 68.3326 416.447 70.6645 417.441 72.6295C418.459 74.5944 419.891 76.1096 421.738 77.1749C423.585 78.2403 425.774 78.7729 428.308 78.7729C429.988 78.7729 431.527 78.5362 432.924 78.0627C434.321 77.5892 435.516 76.879 436.511 75.932C437.505 74.9851 438.263 73.825 438.783 72.4519L452.775 73.3752C452.065 76.737 450.609 79.6726 448.407 82.182C446.229 84.6678 443.412 86.6091 439.955 88.0059C436.522 89.379 432.557 90.0656 428.059 90.0656Z" fill="white"/>
<path d="M474.632 34.4548L484.646 53.5244L494.909 34.4548H510.428L494.625 61.7275L510.854 89.0002H495.406L484.646 70.1437L474.064 89.0002H458.439L474.632 61.7275L459.007 34.4548H474.632Z" fill="white"/>
<path fill-rule="evenodd" clip-rule="evenodd" d="M25 0C11.1929 0 0 11.1929 0 25V105.5C0 119.307 11.1929 130.5 25 130.5H105.5C119.307 130.5 130.5 119.307 130.5 105.5V25C130.5 11.1929 119.307 0 105.5 0H25ZM40.5043 28.2729V101H58.0824V78.415H70.0142C75.5777 78.415 80.3835 77.3852 84.4318 75.3255C88.4801 73.2658 91.5933 70.3658 93.7713 66.6252C95.973 62.861 97.0739 58.4694 97.0739 53.4505C97.0739 48.4552 95.9967 44.0755 93.8423 40.3113C91.688 36.5234 88.6222 33.576 84.6449 31.469C80.6913 29.3383 75.992 28.2729 70.5469 28.2729H40.5043ZM58.0824 64.5656H66.7472C69.3987 64.5656 71.6122 64.1039 73.3878 63.1806C75.187 62.2573 76.5483 60.9671 77.4716 59.3099C78.3949 57.629 78.8565 55.6759 78.8565 53.4505C78.8565 51.2015 78.3949 49.2602 77.4716 47.6266C76.5483 45.9694 75.187 44.691 73.3878 43.7914C71.5885 42.8918 69.375 42.442 66.7472 42.442H58.0824V64.5656Z" fill="white"/>
</svg>
